<?xml version="1.0" standalone="no"?>
<!DOCTYPE svg PUBLIC "-//W3C//DTD SVG 20010904//EN"
 "http://www.w3.org/TR/2001/REC-SVG-20010904/DTD/svg10.dtd">
<svg version="1.0" xmlns="http://www.w3.org/2000/svg"
 width="960.000000pt" height="960.000000pt" viewBox="0 0 960.000000 960.000000"
 preserveAspectRatio="xMidYMid meet">
<metadata>
Created by potrace 1.14, written by Peter Selinger 2001-2017
</metadata>
<g transform="translate(0.000000,960.000000) scale(0.100000,-0.100000)"
fill="#000000" stroke="none">
<path d="M3815 8445 c-113 -21 -426 -137 -636 -236 -173 -81 -381 -169 -400
-169 -4 0 -112 -51 -241 -114 -319 -156 -394 -217 -481 -396 l-42 -85 0 -125
c1 -145 16 -197 92 -312 74 -113 150 -165 308 -213 50 -15 155 -52 235 -83
190 -72 239 -84 335 -85 103 -1 157 22 231 99 53 55 54 56 39 21 -26 -63 -19
-146 20 -249 63 -162 156 -278 265 -331 117 -56 314 -56 428 -1 180 87 304
327 275 530 -14 96 -51 169 -131 255 -45 49 -83 78 -130 101 -66 33 -69 33
-227 36 -178 4 -240 -9 -313 -64 l-35 -27 16 29 c9 16 34 69 56 118 23 49 49
95 59 102 48 37 160 87 223 100 113 24 188 6 249 -58 30 -32 164 -228 230
-338 60 -97 169 -238 223 -285 85 -75 175 -114 290 -126 173 -18 287 19 392
125 69 70 105 127 140 221 46 122 32 200 -79 430 -116 242 -244 424 -511 735
-50 58 -101 119 -113 137 -12 17 -52 53 -90 81 -214 158 -450 220 -677 177z"/>
<path d="M7112 6529 c-30 -4 -76 -19 -104 -33 -48 -25 -55 -26 -236 -26 -222
0 -361 -17 -747 -90 -318 -60 -428 -77 -550 -85 -111 -8 -174 -21 -243 -51
-209 -92 -352 -347 -313 -559 33 -180 177 -335 360 -389 95 -28 219 -30 447
-7 220 22 303 25 366 15 35 -6 38 -10 53 -61 52 -178 172 -316 324 -374 76
-29 207 -36 284 -16 118 31 234 125 310 249 50 83 67 143 74 260 5 78 9 98 22
102 18 5 121 20 261 37 122 15 225 41 291 75 111 56 227 199 263 323 71 245
-132 547 -412 616 -64 15 -367 25 -450 14z"/>
<path d="M3475 5330 c-113 -24 -234 -93 -299 -171 -16 -19 -45 -67 -64 -108
-32 -67 -36 -84 -40 -180 -3 -92 -1 -116 21 -183 50 -158 196 -306 327 -333
65 -13 325 -76 370 -90 25 -7 97 -28 160 -45 195 -53 345 -101 1250 -400 481
-159 1091 -356 1355 -439 764 -238 945 -301 1585 -556 411 -164 543 -205 683
-212 119 -7 185 6 283 53 195 95 312 318 275 524 -19 103 -62 183 -145 265
-89 88 -128 109 -367 194 -256 91 -593 218 -864 326 -126 50 -364 133 -555
192 -403 125 -693 218 -1535 494 -914 300 -1004 330 -1255 409 -124 39 -252
80 -285 90 -122 39 -453 132 -535 151 -95 22 -304 33 -365 19z"/>
<path d="M2620 1975 c13 -14 26 -25 28 -25 3 0 -5 11 -18 25 -13 14 -26 25
-28 25 -3 0 5 -11 18 -25z"/>
<path d="M2760 1815 c13 -14 26 -25 28 -25 3 0 -5 11 -18 25 -13 14 -26 25
-28 25 -3 0 5 -11 18 -25z"/>
<path d="M2860 1746 c0 -2 7 -7 16 -10 8 -3 12 -2 9 4 -6 10 -25 14 -25 6z"/>
<path d="M3238 1573 c7 -3 16 -2 19 1 4 3 -2 6 -13 5 -11 0 -14 -3 -6 -6z"/>
<path d="M3540 1466 c0 -2 7 -7 16 -10 8 -3 12 -2 9 4 -6 10 -25 14 -25 6z"/>
<path d="M4210 1406 c0 -2 7 -7 16 -10 8 -3 12 -2 9 4 -6 10 -25 14 -25 6z"/>
</g>
</svg>
